<svg id="Logo" xmlns="http://www.w3.org/2000/svg" width="40" height="40.637" viewBox="0 0 40 40.637">
  <path id="矩形_1509" data-name="矩形 1509" d="M0,0H40V40H0Z" transform="translate(0 0.319)" fill="#fff"/>
  <g id="组_2" data-name="组 2" transform="translate(3.681)">
    <g id="直线_55" data-name="直线 55" fill="none" stroke-linecap="round">
      <path d="M16.319,1.119l-15.2,11.2" stroke="none"/>
      <path d="M 1.119242668151855 13.11865520477295 C 1.057855606079102 13.11865520477295 0.9966714978218079 13.11161518096924 0.9369749426841736 13.09772968292236 C 0.8772783279418945 13.08384227752686 0.819069504737854 13.0631103515625 0.7636328935623169 13.03572750091553 C 0.7081962823867798 13.00834178924561 0.6555320620536804 12.9743070602417 0.6069249510765076 12.93381500244141 C 0.5583177804946899 12.89332294464111 0.5137677192687988 12.84637451171875 0.4745595157146454 12.79316329956055 C 0.4090364873409271 12.70423889160156 0.3646367192268372 12.60624599456787 0.3404515385627747 12.5051794052124 C 0.3162663578987122 12.40411281585693 0.3122957348823547 12.299973487854 0.3276309967041016 12.19876003265381 C 0.3429662883281708 12.09754657745361 0.3776074051856995 11.99925804138184 0.4306457042694092 11.90989208221436 C 0.4836840331554413 11.82052612304688 0.555119514465332 11.74008369445801 0.644043505191803 11.67455959320068 L 15.84404277801514 0.4745595157146454 C 15.87975597381592 0.448244720697403 15.91693305969238 0.4253368377685547 15.95518493652344 0.4057770371437073 C 15.99343585968018 0.3862172067165375 16.03276062011719 0.3700055778026581 16.07277297973633 0.3570832312107086 C 16.11278343200684 0.3441608846187592 16.15348243713379 0.3345278799533844 16.19447708129883 0.3281254768371582 C 16.23547172546387 0.321723073720932 16.27676391601562 0.3185512721538544 16.31796455383301 0.3185512721538544 C 16.37935256958008 0.3185512721538544 16.44053649902344 0.3255917727947235 16.5002326965332 0.3394782245159149 C 16.55992889404297 0.3533646166324615 16.61813926696777 0.3740969598293304 16.67357444763184 0.4014807343482971 C 16.72901153564453 0.4288644790649414 16.78167533874512 0.4628996551036835 16.83028221130371 0.5033916831016541 C 16.87889099121094 0.5438836216926575 16.92344093322754 0.5908324122428894 16.96264839172363 0.644043505191803 C 17.02817153930664 0.7329674959182739 17.07257080078125 0.8309615254402161 17.09675598144531 0.9320279359817505 C 17.12094116210938 1.03309440612793 17.12491226196289 1.137233257293701 17.10957717895508 1.238447070121765 C 17.09424209594727 1.339660882949829 17.05960083007812 1.437949419021606 17.00656127929688 1.527315378189087 C 16.95352363586426 1.616681337356567 16.88208770751953 1.697124481201172 16.79316520690918 1.76264762878418 L 1.59316349029541 12.962646484375 C 1.557450652122498 12.98896217346191 1.52027416229248 13.01187038421631 1.482023119926453 13.0314302444458 C 1.443771839141846 13.05098915100098 1.404445886611938 13.06720161437988 1.364434123039246 13.08012390136719 C 1.324422240257263 13.09304714202881 1.283724427223206 13.10267925262451 1.242729544639587 13.10908222198486 C 1.201734781265259 13.11548519134521 1.16044282913208 13.11865520477295 1.119242668151855 13.11865520477295 Z" stroke="none" fill="#6cf"/>
    </g>
    <g id="直线_56" data-name="直线 56" transform="translate(15.2)" fill="none" stroke-linecap="round">
      <path d="M1.119,1.119l15.2,11.2" stroke="none"/>
      <path d="M 16.31796455383301 13.11865520477295 C 16.27675819396973 13.11865520477295 16.23546409606934 13.11548519134521 16.19447135925293 13.1090841293335 C 16.15347671508789 13.10268306732178 16.1127815246582 13.09305095672607 16.07277297973633 13.0801305770874 C 16.03276443481445 13.06720924377441 15.99344062805176 13.05099773406982 15.95518970489502 13.0314359664917 C 15.91693878173828 13.01187610626221 15.8797607421875 12.9889669418335 15.84404277801514 12.962646484375 L 0.644043505191803 1.76264762878418 C 0.555119514465332 1.697124481201172 0.4836840331554413 1.616681337356567 0.4306457042694092 1.527315378189087 C 0.3776074051856995 1.437949419021606 0.3429662883281708 1.33966076374054 0.3276309967041016 1.238447070121765 C 0.3122957348823547 1.137233257293701 0.3162663578987122 1.03309440612793 0.3404515385627747 0.9320279359817505 C 0.3646367192268372 0.8309615254402161 0.4090364873409271 0.7329674959182739 0.4745595157146454 0.644043505191803 C 0.5137637257575989 0.590837836265564 0.5583133697509766 0.5438917279243469 0.6069217920303345 0.5034007430076599 C 0.6555301547050476 0.4629097878932953 0.708197295665741 0.4288739860057831 0.7636365294456482 0.401488870382309 C 0.8190757036209106 0.3741037547588348 0.8772869110107422 0.3533693253993988 0.9369835257530212 0.3394812047481537 C 0.9966800808906555 0.3255930840969086 1.057862162590027 0.3185512721538544 1.119242668151855 0.3185512721538544 C 1.160448908805847 0.3185512721538544 1.201742649078369 0.3217220902442932 1.24273693561554 0.3281232416629791 C 1.28373122215271 0.334524393081665 1.324426174163818 0.344155877828598 1.364435076713562 0.3570772111415863 C 1.404444098472595 0.3699985444545746 1.443766951560974 0.3862097263336182 1.482017397880554 0.4057703018188477 C 1.520267605781555 0.4253308475017548 1.557445287704468 0.448240727186203 1.59316349029541 0.4745595157146454 L 16.79316520690918 11.67455959320068 C 16.88208770751953 11.74008369445801 16.95352363586426 11.82052612304688 17.00656127929688 11.90989208221436 C 17.05960083007812 11.99925804138184 17.09424209594727 12.09754657745361 17.10957717895508 12.19876003265381 C 17.12491226196289 12.299973487854 17.12094116210938 12.40411281585693 17.09675598144531 12.5051794052124 C 17.07257080078125 12.60624599456787 17.02817153930664 12.70423889160156 16.96264839172363 12.79316329956055 C 16.9234447479248 12.84636878967285 16.8788948059082 12.89331531524658 16.83028602600098 12.93380641937256 C 16.78167724609375 12.97429656982422 16.7290096282959 13.00833320617676 16.67357063293457 13.03571796417236 C 16.61813163757324 13.0631046295166 16.5599193572998 13.08383846282959 16.50022315979004 13.09772682189941 C 16.44052696228027 13.11161518096924 16.37934684753418 13.11865520477295 16.31796455383301 13.11865520477295 Z" stroke="none" fill="#6cf"/>
    </g>
    <g id="直线_57" data-name="直线 57" transform="translate(0.319 11.519)" fill="none" stroke-linecap="round">
      <path d="M.8.8v16" stroke="none"/>
      <path d="M 0.800000011920929 17.60000038146973 C 0.6895430088043213 17.60000038146973 0.5843145251274109 17.57761383056641 0.488603800535202 17.53713035583496 C 0.3928931355476379 17.49664878845215 0.3067002892494202 17.43807029724121 0.2343145459890366 17.36568641662598 C 0.1619287580251694 17.29330062866211 0.1033501178026199 17.20710754394531 0.06286793202161789 17.11139678955078 C 0.0223857406526804 17.01568603515625 0 16.91045761108398 0 16.80000114440918 L 0 0.800000011920929 C 0 0.6895430088043213 0.0223857406526804 0.5843145251274109 0.06286793202161789 0.488603800535202 C 0.1033501178026199 0.3928931355476379 0.1619287580251694 0.3067002892494202 0.2343145459890366 0.2343145459890366 C 0.3067002892494202 0.1619287580251694 0.3928931355476379 0.1033501178026199 0.4886038303375244 0.06286793202161789 C 0.5843145251274109 0.0223857406526804 0.6895430088043213 0 0.800000011920929 0 C 0.9104570746421814 0 1.015685439109802 0.0223857406526804 1.111396193504333 0.06286793202161789 C 1.207106947898865 0.1033501178026199 1.293299674987793 0.1619287580251694 1.36568546295166 0.2343145459890366 C 1.438071250915527 0.3067002892494202 1.496649980545044 0.3928931355476379 1.537132143974304 0.4886038303375244 C 1.577614188194275 0.5843145251274109 1.600000023841858 0.6895430088043213 1.600000023841858 0.800000011920929 L 1.600000023841858 16.80000114440918 C 1.600000023841858 16.91045761108398 1.577614188194275 17.01568603515625 1.537132143974304 17.11139678955078 C 1.496649980545044 17.20710754394531 1.438071250915527 17.29330062866211 1.36568546295166 17.36568641662598 C 1.293299674987793 17.43807029724121 1.207106947898865 17.49664878845215 1.111396193504333 17.53713035583496 C 1.015685439109802 17.57761383056641 0.9104570746421814 17.60000038146973 0.800000011920929 17.60000038146973 Z" stroke="none" fill="#6cf"/>
    </g>
    <g id="直线_58" data-name="直线 58" transform="translate(30.719 11.519)" fill="none" stroke-linecap="round">
      <path d="M.8.8v16" stroke="none"/>
      <path d="M 0.800000011920929 17.60000038146973 C 0.6895430088043213 17.60000038146973 0.5843145251274109 17.57761383056641 0.488603800535202 17.53713035583496 C 0.3928931355476379 17.49664878845215 0.3067002892494202 17.43807029724121 0.2343145459890366 17.36568641662598 C 0.1619287580251694 17.29330062866211 0.1033501178026199 17.20710754394531 0.06286793202161789 17.11139678955078 C 0.0223857406526804 17.01568603515625 0 16.91045761108398 0 16.80000114440918 L 0 0.800000011920929 C 0 0.6895430088043213 0.0223857406526804 0.5843145251274109 0.06286793202161789 0.488603800535202 C 0.1033501178026199 0.3928931355476379 0.1619287580251694 0.3067002892494202 0.2343145459890366 0.2343145459890366 C 0.3067002892494202 0.1619287580251694 0.3928931355476379 0.1033501178026199 0.4886038303375244 0.06286793202161789 C 0.5843145251274109 0.0223857406526804 0.6895430088043213 0 0.800000011920929 0 C 0.9104570746421814 0 1.015685439109802 0.0223857406526804 1.111396193504333 0.06286793202161789 C 1.207106947898865 0.1033501178026199 1.293299674987793 0.1619287580251694 1.36568546295166 0.2343145459890366 C 1.438071250915527 0.3067002892494202 1.496649980545044 0.3928931355476379 1.537132143974304 0.4886038303375244 C 1.577614188194275 0.5843145251274109 1.600000023841858 0.6895430088043213 1.600000023841858 0.800000011920929 L 1.600000023841858 16.80000114440918 C 1.600000023841858 16.91045761108398 1.577614188194275 17.01568603515625 1.537132143974304 17.11139678955078 C 1.496649980545044 17.20710754394531 1.438071250915527 17.29330062866211 1.36568546295166 17.36568641662598 C 1.293299674987793 17.43807029724121 1.207106947898865 17.49664878845215 1.111396193504333 17.53713035583496 C 1.015685439109802 17.57761383056641 0.9104570746421814 17.60000038146973 0.800000011920929 17.60000038146973 Z" stroke="none" fill="#6cf"/>
    </g>
    <g id="直线_59" data-name="直线 59" transform="translate(15.2 27.2)" fill="none" stroke-linecap="round">
      <path d="M16.319,1.119l-15.2,11.2" stroke="none"/>
      <path d="M 1.119242668151855 13.11865520477295 C 1.057855606079102 13.11865520477295 0.9966714978218079 13.11161518096924 0.9369749426841736 13.09772968292236 C 0.8772783279418945 13.08384227752686 0.819069504737854 13.0631103515625 0.7636328935623169 13.03572750091553 C 0.7081962823867798 13.00834178924561 0.6555320620536804 12.9743070602417 0.6069249510765076 12.93381500244141 C 0.5583177804946899 12.89332294464111 0.5137677192687988 12.84637451171875 0.4745595157146454 12.79316329956055 C 0.4090364873409271 12.70423889160156 0.3646367192268372 12.60624599456787 0.3404515385627747 12.5051794052124 C 0.3162663578987122 12.40411281585693 0.3122957348823547 12.299973487854 0.3276309967041016 12.19876003265381 C 0.3429662883281708 12.09754657745361 0.3776074051856995 11.99925804138184 0.4306457042694092 11.90989208221436 C 0.4836840331554413 11.82052612304688 0.555119514465332 11.74008369445801 0.644043505191803 11.67455959320068 L 15.84404277801514 0.4745595157146454 C 15.87975597381592 0.448244720697403 15.91693305969238 0.4253368377685547 15.95518493652344 0.4057770371437073 C 15.99343585968018 0.3862172067165375 16.03276062011719 0.3700055778026581 16.07277297973633 0.3570832312107086 C 16.11278343200684 0.3441608846187592 16.15348243713379 0.3345278799533844 16.19447708129883 0.3281254768371582 C 16.23547172546387 0.321723073720932 16.27676391601562 0.3185512721538544 16.31796455383301 0.3185512721538544 C 16.37935256958008 0.3185512721538544 16.44053649902344 0.3255917727947235 16.5002326965332 0.3394782245159149 C 16.55992889404297 0.3533646166324615 16.61813926696777 0.3740969598293304 16.67357444763184 0.4014807343482971 C 16.72901153564453 0.4288644790649414 16.78167533874512 0.4628996551036835 16.83028221130371 0.5033916831016541 C 16.87889099121094 0.5438836216926575 16.92344093322754 0.5908324122428894 16.96264839172363 0.644043505191803 C 17.02817153930664 0.7329674959182739 17.07257080078125 0.8309615254402161 17.09675598144531 0.9320279359817505 C 17.12094116210938 1.03309440612793 17.12491226196289 1.137233257293701 17.10957717895508 1.238447070121765 C 17.09424209594727 1.339660882949829 17.05960083007812 1.437949419021606 17.00656127929688 1.527315378189087 C 16.95352363586426 1.616681337356567 16.88208770751953 1.697124481201172 16.79316520690918 1.76264762878418 L 1.59316349029541 12.962646484375 C 1.557450652122498 12.98896217346191 1.52027416229248 13.01187038421631 1.482023119926453 13.0314302444458 C 1.443771839141846 13.05098915100098 1.404445886611938 13.06720161437988 1.364434123039246 13.08012390136719 C 1.324422240257263 13.09304714202881 1.283724427223206 13.10267925262451 1.242729544639587 13.10908222198486 C 1.201734781265259 13.11548519134521 1.16044282913208 13.11865520477295 1.119242668151855 13.11865520477295 Z" stroke="none" fill="#6cf"/>
    </g>
    <g id="直线_60" data-name="直线 60" transform="translate(0 27.2)" fill="none" stroke-linecap="round">
      <path d="M1.119,1.119l15.2,11.2" stroke="none"/>
      <path d="M 16.31796455383301 13.11865520477295 C 16.27675819396973 13.11865520477295 16.23546409606934 13.11548519134521 16.19447135925293 13.1090841293335 C 16.15347671508789 13.10268306732178 16.1127815246582 13.09305095672607 16.07277297973633 13.0801305770874 C 16.03276443481445 13.06720924377441 15.99344062805176 13.05099773406982 15.95518970489502 13.0314359664917 C 15.91693878173828 13.01187610626221 15.8797607421875 12.9889669418335 15.84404277801514 12.962646484375 L 0.644043505191803 1.76264762878418 C 0.555119514465332 1.697124481201172 0.4836840331554413 1.616681337356567 0.4306457042694092 1.527315378189087 C 0.3776074051856995 1.437949419021606 0.3429662883281708 1.33966076374054 0.3276309967041016 1.238447070121765 C 0.3122957348823547 1.137233257293701 0.3162663578987122 1.03309440612793 0.3404515385627747 0.9320279359817505 C 0.3646367192268372 0.8309615254402161 0.4090364873409271 0.7329674959182739 0.4745595157146454 0.644043505191803 C 0.5137637257575989 0.590837836265564 0.5583133697509766 0.5438917279243469 0.6069217920303345 0.5034007430076599 C 0.6555301547050476 0.4629097878932953 0.708197295665741 0.4288739860057831 0.7636365294456482 0.401488870382309 C 0.8190757036209106 0.3741037547588348 0.8772869110107422 0.3533693253993988 0.9369835257530212 0.3394812047481537 C 0.9966800808906555 0.3255930840969086 1.057862162590027 0.3185512721538544 1.119242668151855 0.3185512721538544 C 1.160448908805847 0.3185512721538544 1.201742649078369 0.3217220902442932 1.24273693561554 0.3281232416629791 C 1.28373122215271 0.334524393081665 1.324426174163818 0.344155877828598 1.364435076713562 0.3570772111415863 C 1.404444098472595 0.3699985444545746 1.443766951560974 0.3862097263336182 1.482017397880554 0.4057703018188477 C 1.520267605781555 0.4253308475017548 1.557445287704468 0.448240727186203 1.59316349029541 0.4745595157146454 L 16.79316520690918 11.67455959320068 C 16.88208770751953 11.74008369445801 16.95352363586426 11.82052612304688 17.00656127929688 11.90989208221436 C 17.05960083007812 11.99925804138184 17.09424209594727 12.09754657745361 17.10957717895508 12.19876003265381 C 17.12491226196289 12.299973487854 17.12094116210938 12.40411281585693 17.09675598144531 12.5051794052124 C 17.07257080078125 12.60624599456787 17.02817153930664 12.70423889160156 16.96264839172363 12.79316329956055 C 16.9234447479248 12.84636878967285 16.8788948059082 12.89331531524658 16.83028602600098 12.93380641937256 C 16.78167724609375 12.97429656982422 16.7290096282959 13.00833320617676 16.67357063293457 13.03571796417236 C 16.61813163757324 13.0631046295166 16.5599193572998 13.08383846282959 16.50022315979004 13.09772682189941 C 16.44052696228027 13.11161518096924 16.37934684753418 13.11865520477295 16.31796455383301 13.11865520477295 Z" stroke="none" fill="#6cf"/>
    </g>
    <g id="直线_61" data-name="直线 61" transform="translate(7.519 11.519)" fill="none" stroke-linecap="round">
      <path d="M.8.8h18" stroke="none"/>
      <path d="M 18.80000114440918 1.600000023841858 L 0.800000011920929 1.600000023841858 C 0.6895430088043213 1.600000023841858 0.5843145251274109 1.577614188194275 0.488603800535202 1.537132143974304 C 0.3928931355476379 1.496649980545044 0.3067002892494202 1.438071250915527 0.2343145459890366 1.36568546295166 C 0.1619287580251694 1.293299674987793 0.1033501178026199 1.207106947898865 0.06286793202161789 1.111396193504333 C 0.0223857406526804 1.015685439109802 0 0.9104570746421814 0 0.800000011920929 C 0 0.6895430088043213 0.0223857406526804 0.5843145251274109 0.06286793202161789 0.488603800535202 C 0.1033501178026199 0.3928931355476379 0.1619287580251694 0.3067002892494202 0.2343145459890366 0.2343145459890366 C 0.3067002892494202 0.1619287580251694 0.3928931355476379 0.1033501178026199 0.4886038303375244 0.06286793202161789 C 0.5843145251274109 0.0223857406526804 0.6895430088043213 0 0.800000011920929 0 L 18.80000114440918 0 C 18.91045761108398 0 19.01568603515625 0.0223857406526804 19.11139678955078 0.06286793202161789 C 19.20710754394531 0.1033501178026199 19.29330062866211 0.1619287580251694 19.36568641662598 0.2343145459890366 C 19.43807029724121 0.3067002892494202 19.49664878845215 0.3928931355476379 19.53713035583496 0.4886038303375244 C 19.57761383056641 0.5843145251274109 19.60000038146973 0.6895430088043213 19.60000038146973 0.800000011920929 C 19.60000038146973 0.9104570746421814 19.57761383056641 1.015685439109802 19.53713035583496 1.111396193504333 C 19.49664878845215 1.207106947898865 19.43807029724121 1.293299674987793 19.36568641662598 1.36568546295166 C 19.29330062866211 1.438071250915527 19.20710754394531 1.496649980545044 19.11139678955078 1.537132143974304 C 19.01568603515625 1.577614188194275 18.91045761108398 1.600000023841858 18.80000114440918 1.600000023841858 Z" stroke="none" fill="#6cf"/>
    </g>
    <g id="直线_62" data-name="直线 62" transform="translate(23.519 11.519)" fill="none" stroke-linecap="round">
      <path d="M.8.8V14.2" stroke="none"/>
      <path d="M 0.800000011920929 15 C 0.6895430088043213 15 0.5843145251274109 14.977614402771 0.488603800535202 14.93713092803955 C 0.3928931355476379 14.89664936065674 0.3067002892494202 14.8380708694458 0.2343145459890366 14.76568603515625 C 0.1619287580251694 14.69330024719238 0.1033501178026199 14.6071081161499 0.06286793202161789 14.51139736175537 C 0.0223857406526804 14.41568660736084 0 14.31045722961426 0 14.19999980926514 L 0 0.800000011920929 C 0 0.6895430088043213 0.0223857406526804 0.5843145251274109 0.06286793202161789 0.488603800535202 C 0.1033501178026199 0.3928931355476379 0.1619287580251694 0.3067002892494202 0.2343145459890366 0.2343145459890366 C 0.3067002892494202 0.1619287580251694 0.3928931355476379 0.1033501178026199 0.4886038303375244 0.06286793202161789 C 0.5843145251274109 0.0223857406526804 0.6895430088043213 0 0.800000011920929 0 C 0.9104570746421814 0 1.015685439109802 0.0223857406526804 1.111396193504333 0.06286793202161789 C 1.207106947898865 0.1033501178026199 1.293299674987793 0.1619287580251694 1.36568546295166 0.2343145459890366 C 1.438071250915527 0.3067002892494202 1.496649980545044 0.3928931355476379 1.537132143974304 0.4886038303375244 C 1.577614188194275 0.5843145251274109 1.600000023841858 0.6895430088043213 1.600000023841858 0.800000011920929 L 1.600000023841858 14.19999980926514 C 1.600000023841858 14.31045722961426 1.577614188194275 14.41568660736084 1.537132143974304 14.51139736175537 C 1.496649980545044 14.6071081161499 1.438071250915527 14.69330024719238 1.36568546295166 14.76568603515625 C 1.293299674987793 14.8380708694458 1.207106947898865 14.89664936065674 1.111396193504333 14.93713092803955 C 1.015685439109802 14.977614402771 0.9104570746421814 15 0.800000011920929 15 Z" stroke="none" fill="#6cf"/>
    </g>
    <g id="直线_63" data-name="直线 63" transform="translate(18.392 24.792)" fill="none" stroke-linecap="round">
      <path d="M5.927,1.127l-4.8,4" stroke="none"/>
      <path d="M 1.127155184745789 5.926746845245361 C 1.069847345352173 5.926746845245361 1.012644529342651 5.920621395111084 0.9566036462783813 5.908467292785645 C 0.9005627036094666 5.896312713623047 0.8456838726997375 5.878129005432129 0.793023943901062 5.854011535644531 C 0.7403640151023865 5.829894542694092 0.6899230480194092 5.799843788146973 0.6427580714225769 5.763955593109131 C 0.5955931544303894 5.728067398071289 0.5517042279243469 5.686341762542725 0.5121482610702515 5.638875484466553 C 0.4414352476596832 5.554019927978516 0.3912667334079742 5.458850383758545 0.3610934913158417 5.359407901763916 C 0.3309202194213867 5.259964942932129 0.3207422196865082 5.156248569488525 0.3300102353096008 5.054299831390381 C 0.3392782211303711 4.952351570129395 0.3679922223091125 4.852170944213867 0.41560298204422 4.759799480438232 C 0.4632137417793274 4.667427539825439 0.5297212600708008 4.582864284515381 0.6145762801170349 4.51215124130249 L 5.414576530456543 0.512151300907135 C 5.451964855194092 0.4809942245483398 5.491355895996094 0.4538254737854004 5.532233715057373 0.4305982291698456 C 5.573111057281494 0.4073709547519684 5.615474700927734 0.3880851864814758 5.658807277679443 0.3726940155029297 C 5.702140331268311 0.3573028743267059 5.746441841125488 0.3458063304424286 5.791194915771484 0.3381575644016266 C 5.835948467254639 0.3305087983608246 5.88115406036377 0.3267078399658203 5.926293849945068 0.3267078399658203 C 5.983601570129395 0.3267078399658203 6.040804386138916 0.3328331112861633 6.096845149993896 0.344987690448761 C 6.152885913848877 0.3571422696113586 6.207765102386475 0.3753261268138885 6.260425090789795 0.3994433581829071 C 6.313084602355957 0.4235605895519257 6.363525390625 0.4536111950874329 6.410690307617188 0.4894991517066956 C 6.457855224609375 0.5253871083259583 6.501744270324707 0.5671125054359436 6.541300296783447 0.6145793199539185 C 6.612013339996338 0.6994342803955078 6.662181854248047 0.7946037650108337 6.692355632781982 0.8940466046333313 C 6.722527980804443 0.9934895634651184 6.732706546783447 1.097205758094788 6.723438262939453 1.199154257774353 C 6.714169979095459 1.301102876663208 6.685456275939941 1.401283621788025 6.637845516204834 1.493655443191528 C 6.590234279632568 1.586027383804321 6.523727416992188 1.670590281486511 6.43887186050415 1.741303324699402 L 1.638872146606445 5.741303443908691 C 1.601483941078186 5.772460460662842 1.562092542648315 5.799628734588623 1.521214842796326 5.822856426239014 C 1.480337381362915 5.846083164215088 1.437973618507385 5.865369319915771 1.394640803337097 5.880760192871094 C 1.351308226585388 5.896152019500732 1.307006597518921 5.90764856338501 1.262253165245056 5.915297031402588 C 1.217499852180481 5.922945976257324 1.172294735908508 5.926746845245361 1.127155184745789 5.926746845245361 Z" stroke="none" fill="#6cf"/>
    </g>
    <g id="直线_64" data-name="直线 64" transform="translate(11.519 29.119)" fill="none" stroke-linecap="round">
      <path d="M8,.8H.8" stroke="none"/>
      <path d="M 8 1.600000023841858 L 0.800000011920929 1.600000023841858 C 0.6895430088043213 1.600000023841858 0.5843145251274109 1.577614188194275 0.488603800535202 1.537132143974304 C 0.3928931355476379 1.496649980545044 0.3067002892494202 1.438071250915527 0.2343145459890366 1.36568546295166 C 0.1619287580251694 1.293299674987793 0.1033501178026199 1.207106947898865 0.06286793202161789 1.111396193504333 C 0.0223857406526804 1.015685439109802 0 0.9104570746421814 0 0.800000011920929 C 0 0.6895430088043213 0.0223857406526804 0.5843145251274109 0.06286793202161789 0.488603800535202 C 0.1033501178026199 0.3928931355476379 0.1619287580251694 0.3067002892494202 0.2343145459890366 0.2343145459890366 C 0.3067002892494202 0.1619287580251694 0.3928931355476379 0.1033501178026199 0.4886038303375244 0.06286793202161789 C 0.5843145251274109 0.0223857406526804 0.6895430088043213 0 0.800000011920929 0 L 8 0 C 8.110457420349121 0 8.215685844421387 0.0223857406526804 8.311396598815918 0.06286793202161789 C 8.407107353210449 0.1033501178026199 8.493300437927246 0.1619287580251694 8.565685272216797 0.2343145459890366 C 8.638071060180664 0.3067002892494202 8.696649551391602 0.3928931355476379 8.73713207244873 0.4886038303375244 C 8.777613639831543 0.5843145251274109 8.800000190734863 0.6895430088043213 8.800000190734863 0.800000011920929 C 8.800000190734863 0.9104570746421814 8.777613639831543 1.015685439109802 8.73713207244873 1.111396193504333 C 8.696649551391602 1.207106947898865 8.638071060180664 1.293299674987793 8.565685272216797 1.36568546295166 C 8.493300437927246 1.438071250915527 8.407107353210449 1.496649980545044 8.311396598815918 1.537132143974304 C 8.215685844421387 1.577614188194275 8.110457420349121 1.600000023841858 8 1.600000023841858 Z" stroke="none" fill="#6cf"/>
    </g>
    <g id="直线_65" data-name="直线 65" transform="translate(7.599 23.999)" fill="none" stroke-linecap="round">
      <path d="M4.72,5.92l-3.6-4.8" stroke="none"/>
      <path d="M 4.720614433288574 6.720048427581787 C 4.659805297851562 6.720048427581787 4.599185466766357 6.713143825531006 4.540005683898926 6.699512004852295 C 4.480825424194336 6.685879707336426 4.42308521270752 6.665520668029785 4.368034362792969 6.638612270355225 C 4.312983512878418 6.611705303192139 4.260621547698975 6.578248023986816 4.212199687957764 6.5384202003479 C 4.163777828216553 6.498591899871826 4.1192946434021 6.452392578125 4.080001354217529 6.400001525878906 L 0.4800012111663818 1.600001215934753 C 0.413727194070816 1.511635184288025 0.3684987127780914 1.414020776748657 0.3434579968452454 1.313162684440613 C 0.3184172809123993 1.212304711341858 0.3135643005371094 1.108203291893005 0.328041285276413 1.006863236427307 C 0.3425182402133942 0.9055232405662537 0.3763252198696136 0.8069446682929993 0.4286044538021088 0.7171327471733093 C 0.4808836877346039 0.6273207068443298 0.551635205745697 0.54627525806427 0.6400012373924255 0.4800012111663818 C 0.6759754419326782 0.4530207812786102 0.7134857177734375 0.42952761054039 0.7521253228187561 0.4094643592834473 C 0.7907649278640747 0.3894011080265045 0.8305338025093079 0.3727677464485168 0.8710252046585083 0.3595069050788879 C 0.9115166068077087 0.3462460935115814 0.9527303576469421 0.3363578915596008 0.9942598342895508 0.3297848403453827 C 1.035789251327515 0.3232117593288422 1.077634334564209 0.3199539184570312 1.119388341903687 0.3199539184570312 C 1.180197477340698 0.3199539184570312 1.240816950798035 0.3268589079380035 1.299996972084045 0.3404909074306488 C 1.359176993370056 0.3541229367256165 1.416917324066162 0.3744819164276123 1.471968293190002 0.4013898968696594 C 1.527019143104553 0.4282978177070618 1.579380631446838 0.4617547690868378 1.627802729606628 0.5015826225280762 C 1.676224946975708 0.5414105653762817 1.720707774162292 0.5876094102859497 1.760001182556152 0.6400012373924255 L 5.360001564025879 5.440001487731934 C 5.426275253295898 5.528367519378662 5.471503734588623 5.62598180770874 5.496544361114502 5.726840019226074 C 5.521584987640381 5.82769775390625 5.526438236236572 5.931798934936523 5.511961460113525 6.033139228820801 C 5.497484683990479 6.13447904586792 5.463677883148193 6.233057498931885 5.411398410797119 6.322869777679443 C 5.359118938446045 6.412681579589844 5.288367748260498 6.493727207183838 5.200001239776611 6.560001373291016 C 5.164026737213135 6.586982250213623 5.126516342163086 6.610475063323975 5.087876796722412 6.630538463592529 C 5.049237251281738 6.650601387023926 5.009468078613281 6.667234897613525 4.968976974487305 6.680495738983154 C 4.928485870361328 6.693756103515625 4.887271881103516 6.703644752502441 4.845742702484131 6.710217475891113 C 4.804213047027588 6.716790676116943 4.762368202209473 6.720048427581787 4.720614433288574 6.720048427581787 Z" stroke="none" fill="#6cf"/>
    </g>
    <g id="直线_66" data-name="直线 66" transform="translate(22.899 26.612)" fill="none">
      <path d="M.619.507l3.6,4.4" stroke="none"/>
      <path d="M 3.600000858306885 5.413180828094482 L 1.049041770784243e-06 1.013180732727051 L 1.23832905292511 -3.24249276673072e-06 L 4.838328838348389 4.399996757507324 L 3.600000858306885 5.413180828094482 Z" stroke="none" fill="#6cf"/>
    </g>
    <g id="直线_67" data-name="直线 67" transform="translate(21.304 30.606)" fill="none">
      <path d="M.615.512l2,2.4" stroke="none"/>
      <path d="M 2.000005483627319 3.424294233322144 L 5.292892637953628e-06 1.024294018745422 L 1.229157328605652 -2.00271620087733e-06 L 3.229157209396362 2.39999794960022 L 2.000005483627319 3.424294233322144 Z" stroke="none" fill="#6cf"/>
    </g>
    <g id="直线_68" data-name="直线 68" transform="translate(18.504 33.006)" fill="none">
      <path d="M.615.512l2,2.4" stroke="none"/>
      <path d="M 2.000002384185791 3.424294233322144 L 2.241134779978893e-06 1.024294018745422 L 1.229154229164124 -2.00271620087733e-06 L 3.229154348373413 2.39999794960022 L 2.000002384185791 3.424294233322144 Z" stroke="none" fill="#6cf"/>
    </g>
  </g>
</svg>
