<svg id="Icons_Eye" data-name="Icons/Eye" xmlns="http://www.w3.org/2000/svg" width="12" height="12" viewBox="0 0 12 12">
  <rect id="矩形_1492" data-name="矩形 1492" width="12" height="12" fill="none"/>
  <path id="Icon_awesome-eye-slash" data-name="Icon awesome-eye-slash" d="M5.25,6.562A2.354,2.354,0,0,1,2.906,4.378L1.185,3.048a5.468,5.468,0,0,0-.6.912.531.531,0,0,0,0,.479A5.262,5.262,0,0,0,5.25,7.35a5.1,5.1,0,0,0,1.278-.172L5.677,6.52a2.365,2.365,0,0,1-.427.043Zm5.149.953-1.814-1.4A5.435,5.435,0,0,0,9.918,4.439a.531.531,0,0,0,0-.479A5.262,5.262,0,0,0,5.25,1.05a5.056,5.056,0,0,0-2.417.619L.746.055A.263.263,0,0,0,.377.1L.055.516A.263.263,0,0,0,.1.884l9.653,7.46a.262.262,0,0,0,.368-.046l.322-.415a.262.262,0,0,0-.046-.368ZM7.385,5.186l-.645-.5a1.555,1.555,0,0,0-1.9-2,.782.782,0,0,1,.153.463.765.765,0,0,1-.025.164L3.755,2.381a2.335,2.335,0,0,1,1.5-.543A2.361,2.361,0,0,1,7.613,4.2a2.306,2.306,0,0,1-.228.986Z" transform="translate(0.75 1.8)" fill="#666"/>
</svg>
