<svg id="Icons_Eye" data-name="Icons/Eye" xmlns="http://www.w3.org/2000/svg" width="18" height="18" viewBox="0 0 18 18">
  <rect id="矩形_1492" data-name="矩形 1492" width="18" height="18" fill="none"/>
  <path id="Icon_awesome-eye-slash" data-name="Icon awesome-eye-slash" d="M9,11.25A4.035,4.035,0,0,1,4.981,7.506l-2.95-2.28A9.374,9.374,0,0,0,1,6.789.91.91,0,0,0,1,7.61,9.021,9.021,0,0,0,9,12.6a8.736,8.736,0,0,0,2.191-.294L9.731,11.176A4.054,4.054,0,0,1,9,11.25Zm8.826,1.634-3.109-2.4A9.316,9.316,0,0,0,17,7.61a.91.91,0,0,0,0-.821A9.021,9.021,0,0,0,9,1.8,8.667,8.667,0,0,0,4.857,2.86L1.279.095A.45.45,0,0,0,.647.174L.095.884a.45.45,0,0,0,.079.631L16.721,14.305a.45.45,0,0,0,.632-.079l.552-.711a.45.45,0,0,0-.079-.631ZM12.659,8.89l-1.105-.854A2.665,2.665,0,0,0,8.288,4.606,1.34,1.34,0,0,1,8.55,5.4a1.312,1.312,0,0,1-.043.281l-2.07-1.6A4,4,0,0,1,9,3.15,4.048,4.048,0,0,1,13.05,7.2a3.954,3.954,0,0,1-.391,1.691Z" transform="translate(0 1.8)" fill="#666"/>
</svg>
