<svg id="Icons_search" data-name="Icons/search" xmlns="http://www.w3.org/2000/svg" width="18" height="18" viewBox="0 0 18 18">
  <rect id="矩形_1500" data-name="矩形 1500" width="18" height="18" fill="none"/>
  <g id="Icons_search-0" data-name="Icons/search-0" transform="translate(1 1)">
    <g id="路径_3" data-name="路径 3" fill="none">
      <path d="M7,0A7,7,0,1,1,0,7,7,7,0,0,1,7,0Z" stroke="none"/>
      <path d="M 7 1.5 C 3.967289924621582 1.5 1.5 3.967289924621582 1.5 7 C 1.5 10.03271007537842 3.967289924621582 12.5 7 12.5 C 10.03271007537842 12.5 12.5 10.03271007537842 12.5 7 C 12.5 3.967289924621582 10.03271007537842 1.5 7 1.5 M 7 0 C 10.86598968505859 0 14 3.134010314941406 14 7 C 14 10.86598968505859 10.86598968505859 14 7 14 C 3.134010314941406 14 0 10.86598968505859 0 7 C 0 3.134010314941406 3.134010314941406 0 7 0 Z" stroke="none" fill="#666"/>
    </g>
    <line id="直线_4" data-name="直线 4" x2="4" y2="4" transform="translate(11.5 11.5)" fill="none" stroke="#666" stroke-width="1.5"/>
  </g>
</svg>
